<svg width="760" height="620" viewBox="0 0 760 620" fill="none" xmlns="http://www.w3.org/2000/svg">
  <rect width="760" height="620" rx="28" fill="#0D1015"/>
  <rect x="18" y="18" width="724" height="584" rx="20" fill="#11161D" stroke="#202B38"/>
  <rect x="40" y="38" width="680" height="36" rx="12" fill="#0C1015" stroke="#222C39"/>
  <rect x="56" y="46" width="13" height="20" rx="5" fill="#5D88FF"/>
  <rect x="73" y="40" width="13" height="26" rx="5" fill="#4AD3C0"/>
  <rect x="90" y="50" width="13" height="16" rx="5" fill="#FFBF59"/>
  <rect x="116" y="42" width="74" height="28" rx="10" fill="#2B64D9"/>
  <text x="153" y="61" fill="#F5F8FC" font-family="Segoe UI, Arial, sans-serif" font-size="18" font-weight="700" text-anchor="middle">GPU</text>

  <rect x="40" y="92" width="680" height="140" rx="22" fill="#171D25" stroke="#293545"/>
  <text x="62" y="132" fill="#F3F6FB" font-family="Segoe UI, Arial, sans-serif" font-size="28" font-weight="600">Physical memory</text>
  <text x="658" y="132" fill="#6F9BFF" font-family="Segoe UI, Arial, sans-serif" font-size="27" font-weight="700" text-anchor="end">58.0%</text>
  <rect x="62" y="154" width="636" height="12" rx="6" fill="#0D1218" stroke="#25303D"/>
  <rect x="62" y="154" width="355" height="12" rx="6" fill="#5D88FF"/>
  <text x="62" y="197" fill="#94A3B8" font-family="Segoe UI, Arial, sans-serif" font-size="19">Available</text>
  <text x="62" y="221" fill="#F3F6FB" font-family="Segoe UI, Arial, sans-serif" font-size="26" font-weight="700">3.25 GB</text>
  <text x="390" y="197" fill="#94A3B8" font-family="Segoe UI, Arial, sans-serif" font-size="19">Total</text>
  <text x="390" y="221" fill="#F3F6FB" font-family="Segoe UI, Arial, sans-serif" font-size="26" font-weight="700">7.73 GB</text>

  <rect x="40" y="250" width="680" height="140" rx="22" fill="#171D25" stroke="#293545"/>
  <text x="62" y="290" fill="#F3F6FB" font-family="Segoe UI, Arial, sans-serif" font-size="28" font-weight="600">Pagefile</text>
  <text x="658" y="290" fill="#5EDBC8" font-family="Segoe UI, Arial, sans-serif" font-size="27" font-weight="700" text-anchor="end">60.7%</text>
  <rect x="62" y="312" width="636" height="12" rx="6" fill="#0D1218" stroke="#25303D"/>
  <rect x="62" y="312" width="382" height="12" rx="6" fill="#4AD3C0"/>
  <text x="62" y="355" fill="#94A3B8" font-family="Segoe UI, Arial, sans-serif" font-size="19">Available</text>
  <text x="62" y="379" fill="#F3F6FB" font-family="Segoe UI, Arial, sans-serif" font-size="26" font-weight="700">6.17 GB</text>
  <text x="390" y="355" fill="#94A3B8" font-family="Segoe UI, Arial, sans-serif" font-size="19">Total</text>
  <text x="390" y="379" fill="#F3F6FB" font-family="Segoe UI, Arial, sans-serif" font-size="26" font-weight="700">15.73 GB</text>

  <rect x="40" y="408" width="680" height="140" rx="22" fill="#171D25" stroke="#293545"/>
  <text x="62" y="448" fill="#F3F6FB" font-family="Segoe UI, Arial, sans-serif" font-size="28" font-weight="600">System working set</text>
  <text x="658" y="448" fill="#FFC96B" font-family="Segoe UI, Arial, sans-serif" font-size="27" font-weight="700" text-anchor="end">23.9%</text>
  <rect x="62" y="470" width="636" height="12" rx="6" fill="#0D1218" stroke="#25303D"/>
  <rect x="62" y="470" width="164" height="12" rx="6" fill="#FFBF59"/>
  <text x="62" y="513" fill="#94A3B8" font-family="Segoe UI, Arial, sans-serif" font-size="19">Available</text>
  <text x="62" y="537" fill="#F3F6FB" font-family="Segoe UI, Arial, sans-serif" font-size="26" font-weight="700">6026 MB</text>
  <text x="390" y="513" fill="#94A3B8" font-family="Segoe UI, Arial, sans-serif" font-size="19">Total</text>
  <text x="390" y="537" fill="#F3F6FB" font-family="Segoe UI, Arial, sans-serif" font-size="26" font-weight="700">7913 MB</text>
</svg>
